<?xml version="1.0" standalone="no"?>
<!DOCTYPE svg PUBLIC "-//W3C//DTD SVG 20010904//EN"
 "http://www.w3.org/TR/2001/REC-SVG-20010904/DTD/svg10.dtd">
<svg version="1.0" xmlns="http://www.w3.org/2000/svg"
 width="700.000000pt" height="700.000000pt" viewBox="0 0 700.000000 700.000000"
 preserveAspectRatio="xMidYMid meet">
<metadata>
Created by potrace 1.11, written by Peter Selinger 2001-2013
</metadata>
<g transform="translate(0.000000,700.000000) scale(0.100000,-0.100000)"
fill="#000000" stroke="none">
<path d="M0 3500 l0 -3500 3500 0 3500 0 0 3500 0 3500 -3500 0 -3500 0 0
-3500z m5660 1075 l0 -535 -1485 0 -1485 0 0 -135 0 -135 1485 0 1485 0 0
-535 0 -535 -1442 -2 c-1413 -3 -1444 -3 -1472 -23 -54 -36 -56 -53 -56 -435
l0 -350 -675 0 -675 0 0 1072 0 1073 537 537 538 538 1622 0 1623 0 0 -535z"/>
</g>
</svg>
