<?xml version="1.0" standalone="no"?>
<!DOCTYPE svg PUBLIC "-//W3C//DTD SVG 20010904//EN"
 "http://www.w3.org/TR/2001/REC-SVG-20010904/DTD/svg10.dtd">
<svg version="1.0" xmlns="http://www.w3.org/2000/svg"
 width="1200.000000pt" height="1200.000000pt" viewBox="0 0 1200.000000 1200.000000"
 preserveAspectRatio="xMidYMid meet">
<metadata>
Created by potrace 1.11, written by Peter Selinger 2001-2013
</metadata>
<g transform="translate(0.000000,1200.000000) scale(0.100000,-0.100000)"
fill="#000000" stroke="none">
<path d="M5679 11360 c0 -8 -1 -851 -1 -1873 -1 -1776 -2 -1857 -19 -1820 -18
41 -74 173 -193 463 -42 102 -85 205 -96 230 -11 25 -42 101 -70 170 -28 69
-58 139 -66 157 -8 17 -14 34 -14 37 0 3 -11 29 -24 58 -13 29 -88 208 -166
398 -78 190 -191 462 -250 605 -59 143 -151 366 -205 495 -53 129 -119 289
-147 355 -27 66 -65 158 -84 205 -40 98 -46 112 -67 160 -9 19 -20 47 -26 62
l-10 27 -133 -55 c-73 -30 -206 -85 -295 -122 -90 -37 -163 -70 -163 -74 0 -4
41 -105 90 -225 50 -120 116 -279 146 -353 31 -74 61 -148 69 -165 15 -35 107
-256 265 -640 62 -148 149 -360 195 -470 46 -110 127 -306 180 -435 53 -129
102 -248 110 -265 10 -24 296 -714 360 -870 13 -31 -273 250 -1304 1280 -727
726 -1326 1322 -1331 1323 -6 2 -111 -97 -234 -220 l-225 -224 1327 -1328
c1279 -1279 1325 -1326 1267 -1302 -33 14 -247 102 -475 196 -228 94 -424 175
-435 180 -11 5 -141 59 -290 120 -148 61 -279 115 -290 119 -11 5 -36 16 -55
24 -19 8 -179 74 -355 147 -176 72 -333 138 -350 145 -16 8 -82 35 -145 60
-63 26 -142 58 -175 72 -33 14 -69 29 -80 33 -11 4 -36 15 -55 23 -44 19 -415
173 -574 238 -65 27 -121 49 -125 49 -3 0 -11 -12 -17 -27 -7 -16 -49 -118
-94 -228 -45 -110 -95 -231 -111 -268 l-28 -68 22 -8 c12 -5 144 -59 292 -121
149 -61 320 -132 380 -157 61 -25 124 -51 140 -58 17 -7 147 -61 290 -120 143
-60 420 -174 615 -255 195 -81 537 -223 760 -315 393 -162 434 -179 503 -209
17 -8 93 -39 167 -69 175 -71 283 -117 287 -121 2 -1 -833 -2 -1854 -2 -1022
1 -1865 -2 -1873 -5 -13 -6 -15 -50 -15 -321 l0 -313 1875 -5 c1743 -5 1872
-6 1835 -21 -157 -64 -778 -321 -830 -344 -16 -7 -93 -39 -170 -70 -77 -31
-153 -63 -170 -70 -16 -8 -190 -80 -385 -160 -195 -80 -407 -168 -472 -196
-64 -27 -119 -49 -121 -49 -3 0 -40 -16 -81 -35 -42 -19 -81 -35 -86 -35 -6 0
-18 -4 -28 -10 -9 -5 -100 -44 -202 -86 -102 -42 -198 -82 -215 -89 -16 -7
-66 -27 -110 -45 -44 -18 -89 -36 -100 -41 -11 -5 -117 -49 -235 -98 -118 -49
-214 -94 -213 -98 2 -11 235 -577 239 -582 2 -2 88 31 191 74 103 43 323 134
488 202 165 68 323 133 350 145 100 42 552 230 840 348 110 45 214 88 230 95
17 7 71 30 120 50 50 21 104 43 120 50 71 30 1082 448 1105 457 14 5 -572
-589 -1302 -1319 l-1327 -1328 228 -227 228 -226 1323 1323 c728 728 1325
1323 1327 1321 2 -1 -3 -16 -11 -32 -8 -16 -100 -238 -206 -494 -106 -256
-198 -478 -205 -495 -8 -16 -50 -120 -95 -230 -45 -110 -87 -213 -95 -230 -7
-16 -72 -174 -145 -350 -72 -176 -138 -333 -145 -350 -7 -16 -68 -163 -135
-325 -66 -162 -125 -304 -130 -315 -30 -65 -260 -626 -260 -632 0 -5 87 -43
193 -86 105 -43 201 -83 212 -88 11 -5 57 -24 103 -43 74 -31 84 -33 89 -18 3
9 19 46 35 82 16 36 28 65 28 65 -3 0 19 52 128 315 179 431 392 946 511 1235
62 149 116 280 121 293 12 28 21 48 60 142 17 41 35 84 40 95 5 11 41 99 80
195 39 96 78 189 85 205 7 17 39 93 70 170 31 77 63 154 70 170 7 17 52 125
100 240 48 116 90 216 94 223 4 8 8 -823 9 -1845 0 -1022 1 -1865 1 -1873 1
-13 43 -15 319 -15 l317 0 5 1875 5 1875 62 -150 c34 -82 85 -206 113 -275 28
-69 57 -138 64 -155 8 -16 50 -118 94 -225 44 -107 127 -305 182 -440 56 -135
134 -321 172 -415 38 -93 76 -186 85 -205 8 -19 19 -44 23 -55 5 -11 20 -47
33 -80 14 -33 52 -125 85 -205 33 -80 122 -293 197 -475 75 -181 142 -343 149
-360 8 -16 32 -75 54 -130 80 -198 121 -290 129 -288 10 2 577 235 582 239 2
2 -20 61 -49 131 -30 70 -75 180 -101 243 -26 63 -124 302 -219 530 -95 228
-187 452 -206 497 -18 45 -51 124 -72 175 -22 51 -72 172 -112 268 -155 376
-213 516 -225 545 -7 17 -52 125 -100 240 -48 116 -92 221 -98 235 -6 14 -11
27 -12 30 -5 14 -19 48 -30 75 -7 17 -30 71 -50 120 -20 50 -43 104 -50 120
-7 17 -20 50 -30 75 -39 95 -56 136 -66 153 -6 11 -9 21 -7 23 2 2 600 -593
1328 -1321 l1324 -1324 227 227 227 227 -1326 1328 c-730 730 -1316 1324
-1302 1319 14 -6 106 -43 205 -85 99 -41 286 -118 415 -172 282 -116 490 -203
785 -326 121 -50 240 -99 265 -109 25 -9 126 -51 225 -92 99 -42 270 -113 380
-158 110 -45 214 -88 230 -95 17 -7 136 -56 265 -110 129 -53 249 -102 265
-110 17 -7 54 -23 84 -35 30 -11 73 -29 95 -39 95 -42 227 -94 229 -90 2 2 39
90 82 194 43 105 97 236 121 293 l42 102 -36 16 c-21 8 -125 51 -232 95 -107
44 -208 86 -225 94 -36 16 -573 238 -700 289 -49 21 -103 43 -120 50 -34 15
-187 79 -375 156 -69 28 -138 57 -155 65 -16 7 -55 23 -85 35 -30 12 -68 28
-85 35 -16 8 -147 62 -290 120 -143 59 -273 113 -290 121 -16 7 -52 22 -80 32
-45 18 -462 190 -510 211 -60 27 -99 43 -185 78 l-95 38 1875 5 1875 5 0 314
c0 287 -1 314 -17 320 -10 3 -852 6 -1872 5 -1020 0 -1853 3 -1850 8 3 4 12 8
20 8 8 0 22 4 32 10 14 8 582 244 1197 497 61 25 124 51 140 58 39 17 343 143
820 340 209 86 394 163 410 170 17 7 82 34 145 60 63 26 129 53 145 60 41 19
486 202 518 214 26 10 26 11 13 43 -42 96 -60 141 -142 340 -49 120 -93 218
-97 218 -5 0 -23 -6 -40 -14 -46 -21 -420 -177 -432 -180 -5 -2 -21 -8 -35
-13 -178 -74 -411 -171 -475 -198 -44 -18 -224 -92 -400 -165 -176 -72 -339
-140 -362 -151 -24 -10 -45 -19 -48 -19 -3 0 -24 -9 -48 -19 -23 -11 -148 -63
-277 -116 -249 -103 -392 -162 -875 -362 -165 -68 -329 -136 -365 -150 -36
-15 -71 -31 -78 -36 -7 -6 -14 -8 -17 -6 -2 3 592 601 1320 1329 l1323 1324
-223 223 c-122 123 -227 223 -231 223 -5 0 -604 -595 -1332 -1322 -728 -728
-1319 -1312 -1313 -1298 5 14 27 68 48 120 22 52 59 142 83 200 23 58 48 119
55 135 7 17 30 71 50 120 21 50 45 108 55 130 9 22 35 85 58 140 23 55 97 235
165 400 69 165 211 509 317 765 106 256 198 479 205 495 7 17 24 57 38 90 14
33 46 112 72 175 25 63 52 129 60 145 50 115 217 526 214 529 -2 1 -89 38
-194 81 -104 43 -236 97 -293 121 l-102 43 -16 -37 c-8 -20 -101 -244 -205
-497 -105 -253 -194 -469 -199 -480 -5 -11 -77 -184 -160 -385 -83 -201 -155
-374 -160 -385 -5 -11 -37 -87 -71 -170 -88 -217 -228 -557 -239 -580 -5 -11
-27 -63 -48 -115 -153 -371 -186 -450 -201 -485 -10 -22 -44 -105 -77 -185
l-59 -145 -5 1875 -5 1875 -317 0 c-277 0 -318 -2 -319 -15z"/>
</g>
</svg>
